<?xml version="1.0" encoding="utf-8"?>
<!-- Generator: Adobe Illustrator 24.2.1, SVG Export Plug-In . SVG Version: 6.00 Build 0)  -->
<svg version="1.1" id="Layer_1" xmlns="http://www.w3.org/2000/svg" xmlns:xlink="http://www.w3.org/1999/xlink" x="0px" y="0px"
	 viewBox="0 0 100 100" style="enable-background:new 0 0 100 100;" xml:space="preserve">
<style type="text/css">
	.st0{fill:#252F3E;}
	.st1{fill-rule:evenodd;clip-rule:evenodd;fill:#FF9900;}
</style>
<g id="g1865" transform="translate(-1.668 -1.1)">
	<path id="path1857" class="st0" d="M30.1,43c0,1.2,0.1,2.2,0.4,2.9c0.3,0.7,0.6,1.5,1.1,2.4c0.2,0.3,0.2,0.5,0.2,0.8
		c0,0.3-0.2,0.7-0.6,1l-2.1,1.4c-0.3,0.2-0.6,0.3-0.9,0.3c-0.3,0-0.7-0.2-1-0.5c-0.5-0.5-0.9-1-1.2-1.5c-0.3-0.6-0.7-1.2-1-1.9
		c-2.6,3-5.8,4.5-9.6,4.5c-2.8,0-5-0.8-6.6-2.4s-2.4-3.7-2.4-6.3c0-2.8,1-5.1,3-6.8s4.7-2.6,8-2.6c1.1,0,2.3,0.1,3.5,0.3
		c1.2,0.2,2.5,0.4,3.8,0.7v-2.4c0-2.5-0.5-4.2-1.5-5.3c-1.1-1-2.8-1.5-5.3-1.5c-1.1,0-2.3,0.1-3.5,0.4s-2.4,0.7-3.5,1.1
		c-0.5,0.2-0.9,0.4-1.1,0.4S9.2,28.2,9,28.2c-0.5,0-0.7-0.3-0.7-1v-1.6c0-0.5,0.1-0.9,0.2-1.1S9,24,9.5,23.8
		c1.1-0.6,2.5-1.1,4.1-1.5c1.6-0.4,3.3-0.6,5.1-0.6c3.9,0,6.8,0.9,8.6,2.7c1.8,1.8,2.7,4.5,2.7,8.1L30.1,43L30.1,43z M16.8,48
		c1.1,0,2.2-0.2,3.4-0.6s2.2-1.1,3.1-2.1c0.5-0.6,0.9-1.3,1.1-2.1c0.2-0.8,0.3-1.7,0.3-2.9V39c-1-0.2-2-0.4-3-0.6
		c-1.1-0.1-2.1-0.2-3.1-0.2c-2.2,0-3.8,0.4-4.9,1.3c-1.1,0.9-1.6,2.1-1.6,3.8c0,1.5,0.4,2.7,1.2,3.5C14.2,47.6,15.3,48,16.8,48
		L16.8,48z M43.2,51.6c-0.6,0-1-0.1-1.2-0.3c-0.3-0.2-0.5-0.7-0.7-1.3l-7.7-25.4c-0.2-0.7-0.3-1.1-0.3-1.3c0-0.5,0.3-0.8,0.8-0.8
		h3.2c0.6,0,1.1,0.1,1.3,0.3c0.3,0.2,0.5,0.7,0.7,1.3l5.5,21.7l5.1-21.7c0.2-0.7,0.4-1.1,0.6-1.3c0.3-0.2,0.7-0.3,1.3-0.3h2.6
		c0.6,0,1.1,0.1,1.3,0.3c0.3,0.2,0.5,0.7,0.6,1.3l5.2,22l5.7-22c0.2-0.7,0.4-1.1,0.7-1.3c0.3-0.2,0.7-0.3,1.3-0.3h3.1
		c0.5,0,0.8,0.3,0.8,0.8c0,0.2,0,0.3-0.1,0.5c0,0.2-0.1,0.5-0.2,0.8L64.8,50c-0.2,0.7-0.4,1.1-0.7,1.3c-0.3,0.2-0.7,0.3-1.2,0.3H60
		c-0.6,0-1.1-0.1-1.3-0.3s-0.5-0.7-0.6-1.3L53,28.8l-5.1,21.1c-0.2,0.7-0.4,1.1-0.6,1.3c-0.3,0.2-0.7,0.3-1.3,0.3H43.2z M85.3,52.4
		c-1.7,0-3.4-0.2-5.1-0.6c-1.6-0.4-2.9-0.8-3.8-1.3c-0.5-0.3-0.9-0.6-1-0.9c-0.1-0.3-0.2-0.6-0.2-0.9V47c0-0.7,0.3-1,0.8-1
		c0.2,0,0.4,0,0.6,0.1c0.2,0.1,0.5,0.2,0.8,0.3c1.1,0.5,2.3,0.9,3.6,1.1c1.3,0.3,2.6,0.4,3.9,0.4c2.1,0,3.7-0.4,4.8-1.1
		c1.1-0.7,1.7-1.8,1.7-3.1c0-0.9-0.3-1.7-0.9-2.3c-0.6-0.6-1.7-1.2-3.3-1.7l-4.8-1.5c-2.4-0.8-4.2-1.9-5.3-3.3
		c-1.1-1.4-1.6-3.1-1.6-4.8c0-1.4,0.3-2.6,0.9-3.6c0.6-1.1,1.4-2,2.4-2.7c1-0.8,2.1-1.3,3.4-1.7c1.3-0.4,2.7-0.6,4.1-0.6
		c0.7,0,1.5,0,2.2,0.1c0.8,0.1,1.4,0.2,2.1,0.4c0.7,0.2,1.3,0.3,1.9,0.5c0.6,0.2,1.1,0.4,1.4,0.6c0.5,0.3,0.8,0.5,1,0.8
		c0.2,0.3,0.3,0.6,0.3,1.1v1.5c0,0.7-0.3,1.1-0.8,1.1c-0.3,0-0.7-0.1-1.2-0.4c-1.9-0.9-4-1.3-6.3-1.3c-1.9,0-3.3,0.3-4.4,0.9
		c-1,0.6-1.5,1.6-1.5,2.9c0,0.9,0.3,1.7,1,2.3c0.7,0.6,1.9,1.2,3.6,1.8l4.7,1.5c2.4,0.8,4.1,1.8,5.1,3.2c1,1.3,1.5,2.9,1.5,4.6
		c0,1.4-0.3,2.7-0.9,3.8c-0.6,1.1-1.4,2.1-2.4,2.9c-1,0.8-2.2,1.4-3.6,1.8C88.6,52.2,87,52.4,85.3,52.4L85.3,52.4z"/>
	<g id="g1863">
		<path id="path1859" class="st1" d="M91.5,68.4c-10.8,8-26.5,12.2-40,12.2c-18.9,0-35.9-7-48.8-18.6c-1-0.9-0.1-2.2,1.1-1.4
			c13.9,8.1,31.1,13,48.8,13c12,0,25.1-2.5,37.2-7.6C91.8,65.1,93.3,67.1,91.5,68.4z"/>
		<path id="path1861" class="st1" d="M96,63.3c-1.4-1.8-9.1-0.9-12.6-0.4c-1.1,0.1-1.2-0.8-0.3-1.5c6.2-4.3,16.3-3.1,17.5-1.6
			c1.2,1.5-0.3,11.6-6.1,16.5c-0.9,0.8-1.7,0.4-1.3-0.6C94.5,72.3,97.4,65,96,63.3z"/>
	</g>
</g>
</svg>
