<?xml version="1.0" encoding="utf-8"?>
<!-- Generator: Adobe Illustrator 24.2.1, SVG Export Plug-In . SVG Version: 6.00 Build 0)  -->
<svg version="1.1" id="Layer_1" xmlns="http://www.w3.org/2000/svg" xmlns:xlink="http://www.w3.org/1999/xlink" x="0px" y="0px"
	 viewBox="0 0 800 800" style="enable-background:new 0 0 800 800;" xml:space="preserve">
<style type="text/css">
	.st0{fill:#FF6C2C;}
</style>
<path class="st0" d="M71.2,355.8h49.2l-7.6,29.2c-1.2,4.1-3.3,7.3-6.5,9.8c-3.2,2.5-6.9,3.7-11.1,3.7H72.3c-5.2,0-9.8,1.5-13.8,4.6
	c-4,3.1-6.8,7.2-8.4,12.4c-1,3.9-1.1,7.6-0.3,11.1c0.8,3.5,2.2,6.6,4.2,9.3c2,2.7,4.6,4.8,7.8,6.4c3.2,1.6,6.7,2.4,10.5,2.4h13.9
	c2.6,0,4.8,1.1,6.4,3.2c1.7,2.1,2.1,4.5,1.4,7.1l-8.7,32.2H70.1c-10.5,0-20.1-2.3-28.9-6.9c-8.8-4.6-16.1-10.6-21.9-18.2
	c-5.8-7.6-9.8-16.2-11.9-25.8c-2.1-9.7-1.9-19.6,0.8-29.7l0.9-3.3c1.8-6.9,4.8-13.4,8.8-19.3c4-5.9,8.7-10.9,14.2-15
	c5.4-4.1,11.5-7.4,18.2-9.7C56.9,356.9,63.9,355.8,71.2,355.8z M96,487.2l42.9-160.8c1.2-4.1,3.3-7.3,6.5-9.8
	c3.2-2.5,6.9-3.7,11.1-3.7h45.5c10.5,0,20.1,2.3,28.9,6.9c8.8,4.6,16.1,10.6,21.9,18.2c5.8,7.6,9.8,16.2,12,25.8
	c2.2,9.7,1.9,19.6-0.9,29.7l-0.9,3.3c-1.9,7-4.8,13.4-8.7,19.3c-3.9,5.9-8.6,10.9-14.1,15.1c-5.4,4.2-11.5,7.5-18.2,9.8
	c-6.7,2.3-13.7,3.5-20.9,3.5h-39.4l7.8-29.4c1.2-3.9,3.3-7.1,6.5-9.6c3.2-2.5,6.9-3.7,11.1-3.7h12.6c5.2,0,9.9-1.6,14.1-4.8
	c4.1-3.2,6.9-7.3,8.2-12.4c1-3.6,1.1-7.2,0.3-10.7c-0.8-3.5-2.2-6.6-4.3-9.3c-2-2.7-4.6-4.9-7.8-6.5c-3.2-1.7-6.7-2.5-10.5-2.5
	h-24.4l-31.8,118.3c-1.2,3.9-3.3,7.1-6.5,9.6c-3.2,2.5-6.8,3.7-10.9,3.7L96,487.2L96,487.2z M367.7,401.3l0.7-2.4
	c0.3-1.2,0.1-2.1-0.5-2.9c-0.7-0.8-1.6-1.2-2.7-1.2h-70.8c-3.1,0-5.8-0.7-8.3-2c-2.5-1.3-4.5-3-6.1-5.1c-1.6-2.1-2.7-4.5-3.3-7.3
	c-0.6-2.8-0.5-5.6,0.2-8.5l4.4-16.6h95.9c6,0,11.4,1.3,16.3,3.9c4.9,2.6,9,6,12.3,10.2c3.3,4.2,5.5,9,6.8,14.5
	c1.2,5.4,1.1,11.1-0.3,16.9l-17.2,64.1c-1.7,6.5-5.3,11.8-10.6,15.9c-5.3,4.1-11.4,6.1-18.2,6.1l-70.8-0.2c-6.2,0-12-1.3-17.2-4
	c-5.2-2.7-9.5-6.2-12.9-10.7c-3.3-4.4-5.7-9.5-7-15.3c-1.3-5.7-1.2-11.6,0.4-17.5l0.9-3.3c1-4.1,2.7-7.8,5.1-11.3
	c2.4-3.5,5.2-6.5,8.4-8.9c3.2-2.5,6.8-4.4,10.7-5.8c3.9-1.4,8.1-2.1,12.4-2.1h59.5l-4.4,16.3c-1.2,3.9-3.3,7.1-6.5,9.6
	c-3.2,2.5-6.8,3.7-10.9,3.7h-26.6c-2.5,0-4.1,1.2-4.8,3.7c-0.4,1.6-0.1,3,0.9,4.2c1,1.2,2.3,1.9,3.9,1.9h42.9c1.6,0,3-0.4,4.1-1.3
	c1.2-0.9,1.9-2,2.2-3.5l0.4-1.7L367.7,401.3L367.7,401.3z M494.5,355.8c10.6,0,20.3,2.3,29.1,6.9c8.8,4.6,16.1,10.6,21.9,18.2
	c5.8,7.6,9.8,16.2,11.9,25.9c2.1,9.7,1.8,19.7-1,29.8l-10.9,41c-0.7,2.9-2.3,5.2-4.7,7c-2.4,1.7-5.1,2.6-8,2.6h-23.5
	c-2.8,0-4.9-1.1-6.5-3.2c-1.6-2.1-2-4.5-1.3-7.1l13.1-49.5c1-3.6,1.1-7.2,0.3-10.7c-0.8-3.5-2.2-6.6-4.2-9.3c-2-2.7-4.6-4.9-7.8-6.5
	c-3.2-1.7-6.7-2.5-10.5-2.5h-24.4l-21.1,79.1c-0.7,2.9-2.3,5.2-4.7,7c-2.4,1.7-5.1,2.6-8.2,2.6h-23.3c-2.6,0-4.8-1.1-6.4-3.2
	c-1.7-2.1-2.1-4.5-1.4-7.1L435,355.8H494.5L494.5,355.8z M622.8,397.3c-1.7,1.4-3,3.2-3.7,5.3l-9.8,37c-0.6,2-0.2,3.9,1.1,5.7
	c1.3,1.7,3.1,2.6,5.2,2.6h90.2l-7,25.9c-1.2,3.9-3.3,7.1-6.5,9.6c-3.2,2.5-6.8,3.7-10.9,3.7h-82.1c-6,0-11.4-1.3-16.3-3.8
	c-4.9-2.5-9-6-12.3-10.2c-3.3-4.3-5.5-9.2-6.8-14.6c-1.2-5.4-1.1-11,0.5-16.7l13.3-49.5c1.5-5.4,3.7-10.3,6.8-14.8
	c3.1-4.5,6.6-8.4,10.8-11.5c4.1-3.2,8.8-5.7,13.9-7.5c5.1-1.8,10.6-2.7,16-2.7h58.2c6,0,11.4,1.3,16.3,3.9s9,6,12.3,10.2
	c3.3,4.2,5.5,9.1,6.6,14.6c1.2,5.5,1,11.1-0.4,16.8l-3.9,14.8c-1.7,6.5-5.3,11.8-10.6,15.8c-5.3,4-11.3,6-18,6H620l4.4-16.1
	c1-3.9,3.1-7.1,6.3-9.6c3.2-2.5,6.9-3.7,11.1-3.7h26.6c2.5,0,4.1-1.2,4.8-3.7l0.9-3.3c0.4-1.6,0.1-3.1-0.9-4.4c-1-1.3-2.3-2-3.9-2
	h-40.5C626.5,395.2,624.6,395.9,622.8,397.3L622.8,397.3z M705.6,487.2l43.8-164.5c0.7-2.9,2.3-5.3,4.7-7.1c2.4-1.8,5.1-2.7,8.2-2.7
	h23.3c2.8,0,5,1.1,6.6,3.2c1.7,2.1,2.1,4.5,1.4,7.1L761,444.4c-1.6,6.4-4.2,12.2-7.7,17.4c-3.6,5.2-7.8,9.7-12.6,13.4
	c-4.9,3.7-10.3,6.6-16.2,8.7C718.4,486.1,712.2,487.2,705.6,487.2L705.6,487.2z"/>
</svg>
