<?xml version="1.0" encoding="utf-8"?>
<!-- Generator: Adobe Illustrator 24.2.1, SVG Export Plug-In . SVG Version: 6.00 Build 0)  -->
<svg version="1.1"
	 id="Layer_1" image-rendering="optimizeQuality" shape-rendering="geometricPrecision" text-rendering="geometricPrecision"
	 xmlns="http://www.w3.org/2000/svg" xmlns:xlink="http://www.w3.org/1999/xlink" x="0px" y="0px" viewBox="0 0 6317.5 8192"
	 style="enable-background:new 0 0 6317.5 8192;" xml:space="preserve">
<style type="text/css">
	.st0{fill-rule:evenodd;clip-rule:evenodd;fill:#5E8CDA;}
	.st1{fill-rule:evenodd;clip-rule:evenodd;fill:#FFFFFF;}
	.st2{fill-rule:evenodd;clip-rule:evenodd;fill:#F5CD21;}
	.st3{fill-rule:evenodd;clip-rule:evenodd;fill:#FDDD75;}
</style>
<g id="Layer_x0020_1">
	<g id="litespeed.svg">
		<path class="st0" d="M6257.9,3977.5l-1884.5-1883l-803.2,1017.4l865.6,865.6c80.9,79.5,80.9,210,0,290.9l-249.7,249.7
			c0,0,170.3,252.6,176,269.6c39.7,76.6,48.2,259.7-62.4,343.4L2331.5,6641v1551l3926.4-3923.6
			C6337.4,4187.5,6337.4,4058.4,6257.9,3977.5z"/>
		<path class="st1" d="M1881.7,4214.5c-79.5-79.5-79.5-210,0-289.5l249.7-251.2l-170.3-246.9c-82.3-116.4-56.7-281,56.8-366.1
			L3987.5,1551V0h-2.8L59.6,3925C21.5,3963.7,0,4016,0,4070.4c0,54.4,21.5,106.7,59.6,145.5l1884.5,1885.9l803.2-1018.8
			l-865.6-865.6V4214.5z"/>
		<path class="st1" d="M3192.8,5459l-912.4,911L3192.8,5459z"/>
		<path class="st0" d="M4978,946.5c25.5,0,52.5,14.2,63.8,39.7c21.3,42.6-7.1,82.3-34.1,117.8L3282.2,3292.1
			c-25.5,32.6-28.4,93.7-4.3,127.7c0,0,932.3,1348.1,964.9,1394.9c34.1,51.1,36.9,201.5-42.6,263.9L1426.1,7207.2
			c-39.7,28.4-62.4,38.3-89.4,38.3c-25.5,0-51.1-18.4-61-39.7c-22.7-42.6,5.7-85.2,32.6-119.2l1724.1-2189.5
			c25.5-32.6,28.4-90.8,4.3-124.9l-960.7-1385c-62.4-88-42.6-212.9,42.6-276.7L4891.4,982c45.4-35.5,68.1-39.7,85.1-39.7
			 M4976.5,906.8c-32.6,0-63.8,14.2-106.4,46.8L2095.9,3082.1c-99.3,76.6-122,221.4-49.7,323.5l962.1,1385
			c14.2,19.9,14.2,61-2.8,82.3L1281.4,7066.7c-22.7,28.4-71,90.8-38.3,156.1c17,32.6,53.9,56.7,90.8,59.6c42.6,0,75.2-17,113.5-46.8
			l2772.8-2131.4c96.5-71,96.5-245.5,51.1-312.2c-32.6-45.4-964.9-1394.9-964.9-1394.9c-14.2-21.3-11.4-63.8,4.3-85.1l1727-2185.3
			c21.3-28.4,68.1-88,36.9-156.1c-18.5-34.1-56.8-56.8-96.5-56.8L4976.5,906.8L4976.5,906.8z"/>
		<path class="st2" d="M4171.9,4820.4c22.7,34.1,42.6,161.8-14.2,204.3L1385,7153.3c-24.1,19.9-38.3,28.4-45.4,28.4
			c-9.9,0-2.8-17,22.7-49.7l1724.1-2188.1c42.6-56.7,46.8-149,7.1-205.7l-962.1-1385c0,0,2017.9,1433.2,2040.5,1468.7V4820.4
			L4171.9,4820.4z"/>
		<path class="st3" d="M4171.9,4820.4L3224,3458.1c-39.7-59.6-36.9-151.8,5.7-207.2l1722.7-2186.7c28.4-34.1,34.1-51.1,25.5-51.1
			c-7.1,0-22.7,8.5-45.4,28.4L2158.3,3170.1c-53.9,42.6-66.7,123.5-25.5,181.6L4171.9,4820.4L4171.9,4820.4z"/>
	</g>
</g>
</svg>
