<svg id="Layer_1" data-name="Layer 1" xmlns="http://www.w3.org/2000/svg" viewBox="0 0 150 150"><defs><style>.cls-1{fill:#f1511b;}.cls-2{fill:#80cc28;}.cls-3{fill:#00adef;}.cls-4{fill:#fbbc09;}.cls-5{fill:#706d6e;}.cls-6{fill:none;}</style></defs><path class="cls-1" d="M73.34,46.84H38.5V12H73.34Z"/><path class="cls-2" d="M111.5,46.84H76.66V12H111.5Z"/><path class="cls-3" d="M73.34,85H38.5V50.16H73.34Z"/><path class="cls-4" d="M111.5,85H76.66V50.16H111.5Z"/><path class="cls-5" d="M9.49,112.78l-.72,2h0a20.59,20.59,0,0,0-.67-2L4.29,103H.5v15.52H3.6V107.12c0-.4-.06-.72-.07-1h.06c.09.43.21.87.34,1.3l4.58,11.11h1.68l4.55-11.21c.09-.26.2-.76.31-1.2h0c0,1.1-.1,2.07-.11,2.73v9.68h2.07V103H13.45Z"/><path class="cls-5" d="M20.16,118.56h2.07V107.18H20.16Z"/><path class="cls-5" d="M21.12,102.53A1.52,1.52,0,0,0,20,103a1.35,1.35,0,0,0-.45,1,1.41,1.41,0,0,0,.44,1,1.63,1.63,0,0,0,1.11.41,1.68,1.68,0,0,0,1.11-.41,1.41,1.41,0,0,0,.45-1,1.38,1.38,0,0,0-.45-1,1.52,1.52,0,0,0-1.11-.45"/><path class="cls-5" d="M31.38,107.06a7,7,0,0,0-1.44-.15,6.38,6.38,0,0,0-3.11.75,5.28,5.28,0,0,0-2.07,2.07,7,7,0,0,0-.7,3.11,5.8,5.8,0,0,0,.68,2.8,4.83,4.83,0,0,0,1.93,2,5.69,5.69,0,0,0,2.8.68,6.35,6.35,0,0,0,3.11-.72h0V115.2l-.11.07a5.41,5.41,0,0,1-1.26.66,3.94,3.94,0,0,1-1.23.23,3.12,3.12,0,0,1-2.4-.93,3.64,3.64,0,0,1-.89-2.6,3.72,3.72,0,0,1,.93-2.66,3.09,3.09,0,0,1,2.4-1,4.09,4.09,0,0,1,2.45.85l.11.07v-2.47h0A4.14,4.14,0,0,0,31.4,107"/><path class="cls-5" d="M39.46,107a2.59,2.59,0,0,0-1.71.62,3.34,3.34,0,0,0-1,1.46h0v-1.88H34.65v11.38h2.07v-6c.45-.82.67-1.63,1.12-2.32a2,2,0,0,1,1.67-.88,3.24,3.24,0,0,1,.76.11,2.32,2.32,0,0,1,.57.22v-2.5h0a2.59,2.59,0,0,0-1-.16"/><path class="cls-5" d="M48.94,115.31a2.58,2.58,0,0,1-2.16.91,2.7,2.7,0,0,1-2.2-.92,3.88,3.88,0,0,1-.8-2.63,4.06,4.06,0,0,1,.8-2.69,3,3,0,0,1,4.22-.08l.09.08a4.07,4.07,0,0,1,.79,2.67,4.31,4.31,0,0,1-.74,2.7M46.87,107a5.74,5.74,0,0,0-4.24,1.57,5.83,5.83,0,0,0-1.52,4.23,5.58,5.58,0,0,0,1.5,4.13,5.39,5.39,0,0,0,4,1.51,5.53,5.53,0,0,0,4.13-1.59,5.84,5.84,0,0,0,1.54-4.23,5.75,5.75,0,0,0-1.44-4.14,5.33,5.33,0,0,0-4-1.5"/><path class="cls-5" d="M58.43,111.77A5.17,5.17,0,0,1,57,111a1.05,1.05,0,0,1-.29-.79.81.81,0,0,1,.38-.72,1.5,1.5,0,0,1,1-.3,4,4,0,0,1,1.24.19,3.93,3.93,0,0,1,1.08.5l.09.06v-2.22h0a5.18,5.18,0,0,0-1.09-.3,5.93,5.93,0,0,0-1.19-.12,4.34,4.34,0,0,0-2.82.87,2.76,2.76,0,0,0-1.1,2.27,3.09,3.09,0,0,0,.4,1.62,1.68,1.68,0,0,0,.46.53,6.07,6.07,0,0,0,1.58.91,9.83,9.83,0,0,1,1.23.58,1.61,1.61,0,0,1,.54.43,1,1,0,0,1,.15.58c0,.69-.51,1-1.57,1a4.33,4.33,0,0,1-1.33-.24,5.07,5.07,0,0,1-1.37-.7l-.09-.07v2.35h0a4.85,4.85,0,0,0,1.28.39,5.86,5.86,0,0,0,1.38.17,4.71,4.71,0,0,0,3-.88,2.82,2.82,0,0,0,1.12-2.32,2.74,2.74,0,0,0-.6-1.76,5.37,5.37,0,0,0-2-1.32"/><path class="cls-5" d="M69.81,115.31a2.58,2.58,0,0,1-2.16.91,2.77,2.77,0,0,1-2.21-.92,3.94,3.94,0,0,1-.8-2.63,4.13,4.13,0,0,1,.8-2.69,3,3,0,0,1,4.32,0,4,4,0,0,1,.78,2.67,4.24,4.24,0,0,1-.73,2.7m-2.07-8.4a5.66,5.66,0,0,0-4.24,1.57A5.85,5.85,0,0,0,62,112.75a5.54,5.54,0,0,0,1.5,4.13,5.39,5.39,0,0,0,4,1.51,5.48,5.48,0,0,0,4.13-1.59,5.85,5.85,0,0,0,1.55-4.23,5.71,5.71,0,0,0-1.45-4.14,5.28,5.28,0,0,0-4-1.52"/><path class="cls-5" d="M87.42,109.25v-2.07H84.31v-3.1h-.1l-2,.59h0v2.5H78.1v-1.39a2.26,2.26,0,0,1,.45-1.48,1.58,1.58,0,0,1,1.25-.49,2.88,2.88,0,0,1,1.2.26h-.83V102h0a4,4,0,0,0-1.37-.19,3.83,3.83,0,0,0-2,.49,3.58,3.58,0,0,0-1.35,1.38A4.37,4.37,0,0,0,75,105.7v1.48H72.93v2.07H75v9.31h3.1v-9.31h3.11v5.65c.47,2.3,1.57,3.47,3.71,3.47a5.24,5.24,0,0,0,1.11-.12l1.39-.26h0v-2.14l-.69.07a2.1,2.1,0,0,1-1,.31,1.38,1.38,0,0,1-1.11-.39,3.4,3.4,0,0,1-.28-1.41v-5.18Z"/><path class="cls-5" d="M105,113.39l-2.13-6.13a6.05,6.05,0,0,1-.2-1h0a6.09,6.09,0,0,1-.22,1l-2.07,6.13Zm4.92,5.17h-2.59l-1.46-4.13H99.44L98,118.56h-2.6L101.24,103h2.9Z"/><path class="cls-5" d="M120.85,108.38l-6.11,9.05h6.11v1.13H110.6v-.71l6.36-9.53h-5.22v-1.14h9.11Z"/><path class="cls-5" d="M131.78,118.29h-3.11v-1.8h0a3.55,3.55,0,0,1-3.36,2.07c-2.58,0-3.88-1.62-3.88-4.84v-6.81h3.1v6.3c0,2,.83,3,2.46,3a2.56,2.56,0,0,0,2-.81,3,3,0,0,0,.77-2.13v-6.31h2.07Z"/><path class="cls-5" d="M139.6,109.51a2.33,2.33,0,0,0-1.39-.35,2.46,2.46,0,0,0-2,1,4.31,4.31,0,0,0-.79,2.71v5.66h-2.07V107.18h2.07v2.27h0a3.76,3.76,0,0,1,1.21-1.81,2.85,2.85,0,0,1,1.81-.64,2.24,2.24,0,0,1,1.12.2Z"/><path class="cls-5" d="M146.72,111.73a3.16,3.16,0,0,0-.63-2.07,2.11,2.11,0,0,0-1.7-.73,2.47,2.47,0,0,0-1.83.77,3.71,3.71,0,0,0-.91,2.07Zm2.78,2.11h-7.85a3,3,0,0,0,.95,2,3.42,3.42,0,0,0,2.45.83,6.52,6.52,0,0,0,3.42-1v2a8.62,8.62,0,0,1-4.16,1,4.86,4.86,0,0,1-3.79-1.5,6.74,6.74,0,0,1,.13-8.34,5,5,0,0,1,3.77-1.61,4.27,4.27,0,0,1,3.47,1.44,9.47,9.47,0,0,1,1.61,4Z"/><rect class="cls-6" width="150" height="150"/></svg>